<svg width="16" height="16" viewBox="0 0 16 16" fill="none" xmlns="http://www.w3.org/2000/svg">
<rect x="0.5" y="0.5" width="15" height="15" rx="0.5" stroke="#1981E1"/>
<path d="M5.60745 9.237V10H2.54145V5.149H3.42345V9.237H5.60745ZM7.53874 9.342C7.85607 9.342 8.08707 9.28833 8.23174 9.181C8.37641 9.07367 8.44874 8.922 8.44874 8.726C8.44874 8.60933 8.42307 8.509 8.37174 8.425C8.32507 8.341 8.25507 8.26633 8.16174 8.201C8.07307 8.131 7.96341 8.068 7.83274 8.012C7.70207 7.95133 7.55274 7.893 7.38474 7.837C7.21674 7.77633 7.0534 7.711 6.89474 7.641C6.74074 7.56633 6.60307 7.47533 6.48174 7.368C6.36507 7.26067 6.2694 7.13233 6.19474 6.983C6.12474 6.83367 6.08974 6.654 6.08974 6.444C6.08974 6.00533 6.2414 5.66233 6.54474 5.415C6.84807 5.163 7.26107 5.037 7.78374 5.037C8.08707 5.037 8.35541 5.072 8.58874 5.142C8.82674 5.20733 9.01341 5.27967 9.14874 5.359L8.87574 6.073C8.71707 5.98433 8.54207 5.91667 8.35074 5.87C8.16407 5.82333 7.97041 5.8 7.76974 5.8C7.53174 5.8 7.34507 5.849 7.20974 5.947C7.07907 6.045 7.01374 6.18267 7.01374 6.36C7.01374 6.46733 7.03474 6.56067 7.07674 6.64C7.1234 6.71467 7.18641 6.78233 7.26574 6.843C7.34974 6.90367 7.44541 6.95967 7.55274 7.011C7.66474 7.06233 7.78607 7.11133 7.91674 7.158C8.1454 7.242 8.34841 7.32833 8.52574 7.417C8.70774 7.501 8.85941 7.60367 8.98074 7.725C9.10674 7.84167 9.20241 7.98167 9.26774 8.145C9.33307 8.30367 9.36574 8.49733 9.36574 8.726C9.36574 9.16467 9.20941 9.50533 8.89674 9.748C8.58874 9.986 8.13607 10.105 7.53874 10.105C7.33807 10.105 7.15374 10.091 6.98574 10.063C6.82241 10.0397 6.67541 10.0093 6.54474 9.972C6.41874 9.93467 6.30907 9.89733 6.21574 9.86C6.1224 9.818 6.04774 9.78067 5.99174 9.748L6.25074 9.027C6.37674 9.097 6.54707 9.167 6.76174 9.237C6.9764 9.307 7.23541 9.342 7.53874 9.342ZM11.48 5.1C12.18 5.1 12.7143 5.22833 13.083 5.485C13.4563 5.74167 13.643 6.13367 13.643 6.661C13.643 7.319 13.3187 7.76467 12.67 7.998C12.7587 8.10533 12.859 8.236 12.971 8.39C13.083 8.544 13.1973 8.712 13.314 8.894C13.4307 9.07133 13.5427 9.25567 13.65 9.447C13.7573 9.63367 13.853 9.818 13.937 10H12.95C12.8613 9.832 12.7657 9.664 12.663 9.496C12.5603 9.32333 12.4553 9.15767 12.348 8.999C12.2453 8.83567 12.1427 8.684 12.04 8.544C11.9373 8.39933 11.8417 8.271 11.753 8.159C11.6877 8.16367 11.6317 8.166 11.585 8.166C11.5383 8.166 11.494 8.166 11.452 8.166H11.025V10H10.143V5.219C10.3577 5.17233 10.5863 5.142 10.829 5.128C11.0717 5.10933 11.2887 5.1 11.48 5.1ZM11.543 5.863C11.3563 5.863 11.1837 5.87 11.025 5.884V7.452H11.41C11.6247 7.452 11.8137 7.44033 11.977 7.417C12.1403 7.39367 12.2757 7.35167 12.383 7.291C12.495 7.23033 12.579 7.14867 12.635 7.046C12.691 6.94333 12.719 6.81267 12.719 6.654C12.719 6.50467 12.691 6.37867 12.635 6.276C12.579 6.17333 12.4973 6.09167 12.39 6.031C12.2873 5.97033 12.1637 5.92833 12.019 5.905C11.8743 5.877 11.7157 5.863 11.543 5.863Z" fill="#E78A00"/>
</svg>
