<svg xmlns="http://www.w3.org/2000/svg" width="512" height="512" viewBox="0 0 512 512" version="1.1">
	<path d="M 19.759 13.423 C 17.702 14.157, 14.880 15.504, 13.489 16.415 C 9.974 18.718, 5.190 25.581, 3.988 30.043 C 3.324 32.509, 3.071 109.871, 3.241 257.639 L 3.500 481.500 6 485.953 C 8.956 491.219, 15.552 496.533, 20.930 497.981 C 23.543 498.685, 99.568 498.934, 258.138 498.758 L 491.500 498.500 495.953 496 C 501.219 493.044, 506.533 486.447, 507.981 481.069 C 508.685 478.455, 508.934 405.428, 508.759 253.361 L 508.500 29.500 506 25.047 C 503.080 19.845, 496.518 14.516, 491.225 13.046 C 488.706 12.346, 412.366 12.024, 255.500 12.049 C 64.618 12.081, 22.837 12.324, 19.759 13.423 M 21.301 24.080 C 18.302 25.564, 16.515 27.370, 15.051 30.395 C 13.002 34.627, 13 34.852, 13 255.500 L 13 476.369 15.060 480.624 C 16.556 483.714, 18.286 485.444, 21.376 486.940 L 25.631 489 256 489 L 486.369 489 490.624 486.940 C 493.714 485.444, 495.444 483.714, 496.940 480.624 L 499 476.369 499 255.500 L 499 34.631 496.940 30.376 C 495.444 27.286, 493.714 25.556, 490.624 24.060 L 486.369 22 255.934 22.001 L 25.500 22.002 21.301 24.080 M 231.803 164.079 C 224.490 165.152, 212.886 169.067, 206.500 172.617 C 203.750 174.146, 198.762 178.120, 195.415 181.448 C 184.914 191.893, 180.172 205.621, 181.265 222.412 C 182.206 236.870, 188.622 248.756, 200.238 257.557 C 207.554 263.101, 215.244 266.791, 234.500 273.996 C 264.359 285.169, 273.360 293.046, 273.360 308 C 273.360 325.680, 260.857 332.870, 232.097 331.729 C 217.235 331.139, 206.353 328.624, 194.138 322.953 C 190.638 321.329, 187.643 320, 187.482 320 C 187.320 320, 186.520 321.913, 185.703 324.250 C 184.887 326.587, 182.602 332.920, 180.626 338.323 L 177.034 348.146 184.383 351.541 C 205.296 361.204, 241.675 364.792, 265 359.493 C 276.106 356.970, 287.961 351.096, 294.579 344.837 C 305.379 334.622, 309.268 324.589, 309.243 307 C 309.218 288.842, 305.083 278.893, 292.858 267.574 C 284.869 260.179, 275.486 255.220, 253 246.511 C 229.385 237.365, 220.491 230.977, 218.088 221.436 C 215.160 209.808, 219.469 200.746, 230.243 195.876 C 234.996 193.728, 236.795 193.510, 249 193.609 C 263.708 193.728, 272.765 195.539, 284.099 200.625 C 287.368 202.092, 290.235 203.098, 290.471 202.862 C 290.924 202.409, 301 176.324, 301 175.604 C 301 174.784, 286.367 169.163, 279 167.154 C 264.576 163.219, 245.944 162.005, 231.803 164.079 M 365.500 166.622 C 357.711 167.389, 344.469 169.122, 342.250 169.666 L 340 170.217 340 264.108 L 340 358 357.500 358 L 375 358 375 322 L 375 286 389.399 286 L 403.799 286 410.307 294.750 C 419.928 307.684, 434.592 330.152, 443.052 344.919 L 450.500 357.919 469.763 357.959 L 489.027 358 487.662 354.733 C 482.579 342.567, 459.081 304.740, 446.301 288.149 C 442.763 283.556, 440.011 279.671, 440.184 279.516 C 440.358 279.361, 443.671 277.647, 447.546 275.707 C 461.864 268.540, 470.811 258.617, 475.098 245.150 C 477.925 236.271, 478.172 218.272, 475.587 209.543 C 471.741 196.552, 466.141 188.342, 456.367 181.368 C 448.488 175.746, 438.745 171.560, 427.223 168.848 C 419.915 167.128, 414.525 166.748, 394 166.511 C 380.525 166.355, 367.700 166.405, 365.500 166.622 M 42 262.500 L 42 358 102 358 L 162 358 162 343 L 162 328 119 328 L 76 328 76 247.500 L 76 167 59 167 L 42 167 42 262.500 M 382.250 195.743 L 375 196.088 375 227.044 L 375 258 387.250 257.992 C 417.073 257.974, 432.285 253.122, 438.148 241.758 C 440.938 236.351, 441.860 223.153, 439.931 216.236 C 437.886 208.900, 430.423 202.001, 421.500 199.197 C 414.391 196.964, 399.369 194.860, 393 195.207 C 391.075 195.312, 386.238 195.553, 382.250 195.743" stroke="none" fill="black" fill-rule="evenodd"/>
</svg>