<svg xmlns="http://www.w3.org/2000/svg" width="463" height="411" viewBox="0 0 463 411" version="1.1">
	<path d="M 159.333 67.601 C 116.400 90.227, 87.374 129.270, 77.821 177.245 C 74.633 193.253, 74.631 218.735, 77.816 234.728 C 90.561 298.726, 138.265 346.438, 202.245 359.179 C 218.296 362.375, 243.730 362.370, 259.819 359.167 C 269.597 357.220, 292.132 350.202, 293.727 348.606 C 294.264 348.070, 290.270 338.937, 254.636 259.226 L 236.185 217.953 261.082 195.726 C 289.846 170.048, 295.578 166.313, 307.760 165.307 C 316.988 164.546, 325.845 166.808, 333.821 171.963 C 345.149 179.284, 351.173 190.189, 351.797 204.500 C 352.119 211.882, 351.810 214.508, 350.077 219.105 C 345.529 231.173, 337.357 239.751, 326.252 244.115 C 321.754 245.883, 318.429 246.385, 311 246.418 C 298.194 246.476, 292.588 243.906, 278.263 231.407 L 267.639 222.138 258.885 229.819 C 254.070 234.044, 250.213 238.018, 250.315 238.652 C 250.505 239.838, 268.532 256.107, 273.856 259.897 C 291.930 272.767, 318.126 274.834, 339.442 265.071 C 374.057 249.218, 387.420 205.482, 367.821 172.190 C 363.247 164.421, 351.722 153.186, 344.242 149.205 C 325.960 139.475, 307.588 137.901, 288.752 144.452 C 278.615 147.977, 273.120 152.017, 248.195 174.273 C 235.917 185.235, 225.732 194.046, 225.561 193.852 C 225.391 193.659, 212.263 164.363, 196.389 128.750 C 180.515 93.138, 167.221 64, 166.847 64 C 166.472 64, 163.091 65.620, 159.333 67.601" stroke="none" fill="black" fill-rule="evenodd"/>
</svg>